<svg width="20" height="20" viewBox="0 0 20 20" fill="none" xmlns="http://www.w3.org/2000/svg">
<path d="M10 2C10.4832 2 10.875 2.35817 10.875 2.8V11.2686L12.8813 9.43431C13.223 9.1219 13.777 9.1219 14.1187 9.43431C14.4604 9.74673 14.4604 10.2533 14.1187 10.5657L10.6187 13.7657C10.277 14.0781 9.72299 14.0781 9.38128 13.7657L5.88128 10.5657C5.53957 10.2533 5.53957 9.74673 5.88128 9.43431C6.22299 9.1219 6.77701 9.1219 7.11872 9.43431L9.125 11.2686V2.8C9.125 2.35817 9.51675 2 10 2ZM3.875 14C4.35825 14 4.75 14.3582 4.75 14.8V16.4H15.25V14.8C15.25 14.3582 15.6418 14 16.125 14C16.6082 14 17 14.3582 17 14.8V16.4C17 17.2837 16.2165 18 15.25 18H4.75C3.7835 18 3 17.2837 3 16.4V14.8C3 14.3582 3.39175 14 3.875 14Z" fill="white"/>
</svg>
