<svg width="20" height="20" viewBox="0 0 20 20" fill="none" xmlns="http://www.w3.org/2000/svg">
<path d="M3.875 14C4.35825 14 4.75 14.3582 4.75 14.8V16.4H15.25V14.8C15.25 14.3582 15.6418 14 16.125 14C16.6082 14 17 14.3582 17 14.8V16.4C17 17.2837 16.2165 18 15.25 18H4.75C3.7835 18 3 17.2837 3 16.4V14.8C3 14.3582 3.39175 14 3.875 14Z" fill="#9C9C9C"/>
<path d="M10 14C9.51675 14 9.125 13.6418 9.125 13.2L9.125 4.73137L7.11872 6.56568C6.77701 6.8781 6.22299 6.8781 5.88128 6.56568C5.53957 6.25327 5.53957 5.74673 5.88128 5.43431L9.38128 2.23431C9.72299 1.92189 10.277 1.92189 10.6187 2.23431L14.1187 5.43431C14.4604 5.74673 14.4604 6.25327 14.1187 6.56569C13.777 6.8781 13.223 6.8781 12.8813 6.56569L10.875 4.73137L10.875 13.2C10.875 13.6418 10.4832 14 10 14Z" fill="#9C9C9C"/>
</svg>
